<svg xmlns="http://www.w3.org/2000/svg" width="150" height="50" viewBox="0,0,150,50"><path fill="#222" d="M119.68 27.61L119.78 27.71L119.65 27.58Q117.52 27.70 116.25 29.20L116.26 29.22L116.17 29.12Q114.96 30.70 114.85 32.98L114.88 33.01L114.75 32.88Q114.76 35.67 115.60 36.62L115.45 36.48L115.63 36.65Q116.67 37.84 118.99 37.69L119.05 37.75L118.89 37.59Q123.56 37.31 123.94 34.30L123.91 34.27L124.01 34.37Q124.07 33.53 124.07 32.73L124.13 32.79L124.10 32.76Q124.03 30.70 122.89 29.18L122.96 29.26L122.93 29.22Q121.68 27.63 119.73 27.66ZM124.46 37.64L124.53 37.71L124.48 37.66Q123.09 39.89 118.72 40.12L118.80 40.21L118.80 40.20Q114.61 40.35 112.97 39.25L112.86 39.14L112.84 39.12Q111.84 38.16 111.69 36.44L111.84 36.60L111.73 36.49Q111.77 35.46 111.96 33.59L112.01 33.65L111.97 33.60Q112.51 29.34 113.72 27.52L113.67 27.46L113.56 27.35Q115.29 24.97 119.13 25.01L119.03 24.90L119.15 25.03Q121.65 25.05 123.94 27.37L123.98 27.42L123.84 27.27Q124.11 21.61 125.71 15.10L125.71 15.10L125.68 15.07Q127.49 14.56 129.36 13.72L129.48 13.84L129.37 13.74Q126.71 20.28 126.44 27.29L126.59 27.43L126.52 27.37Q126.17 34.48 128.30 41.07L128.35 41.11L128.24 41.01Q126.77 40.56 125.06 40.18L124.94 40.06L124.98 40.10Q124.74 38.87 124.59 37.77ZM127.60 43.22L127.63 43.25L127.48 43.10Q129.61 43.71 132.16 45.23L132.32 45.39L132.14 45.21Q128.42 38.14 128.27 29.84L128.35 29.92L128.31 29.88Q128.20 21.70 131.28 14.31L131.31 14.34L131.38 14.41Q130.65 14.82 129.20 15.47L129.23 15.50L129.23 15.50Q129.52 14.30 130.13 13.08L130.20 13.15L130.06 13.01Q127.68 14.10 125.24 14.67L125.24 14.66L125.22 14.64Q123.92 20.58 123.65 26.67L123.68 26.70L123.57 26.59Q121.56 24.65 119.04 24.54L119.03 24.52L119.05 24.54Q115.73 24.54 113.83 26.63L113.76 26.56L113.88 26.69Q112.14 29.01 111.72 33.69L111.66 33.63L111.58 33.56Q111.41 36.40 111.41 36.82L111.45 36.86L111.41 36.81Q111.57 38.65 112.71 39.72L112.53 39.53L112.68 39.68Q112.82 39.82 113.01 39.90L113.10 39.99L113.42 40.50L113.45 40.53Q114.55 42.01 117.52 42.27L117.44 42.19L117.41 42.17Q119.75 42.45 121.12 42.52L120.95 42.36L121.10 42.51Q125.31 42.72 127.03 41.39L126.91 41.27L127.01 41.37Q127.13 42.06 127.59 43.21ZM121.31 29.93L121.27 29.89L121.26 29.87Q122.33 29.92 123.17 30.42L123.21 30.46L123.11 30.35Q123.60 31.64 123.68 32.67L123.79 32.79L123.68 32.67Q123.95 36.86 118.92 37.21L118.95 37.24L118.97 37.25Q118.05 37.25 116.95 36.99L117.10 37.13L116.96 37.00Q116.87 36.52 116.79 35.99L116.64 35.84L116.77 35.97Q116.76 35.35 116.80 34.74L116.69 34.63L116.79 34.73Q116.96 31.17 119.59 30.18L119.67 30.27L119.66 30.25Q120.54 29.80 121.22 29.84Z"/><path fill="#222" d="M87.61 14.26L87.64 14.29L87.69 14.35Q91.40 16.80 96.16 17.03L96.26 17.13L96.15 17.02Q100.87 17.28 105.13 15.53L105.00 15.40L105.16 15.56Q104.94 16.15 104.18 18.92L104.16 18.90L104.04 18.78Q101.36 19.87 98.39 20.03L98.31 19.94L98.47 20.10Q95.35 20.10 92.46 19.38L92.47 19.39L92.53 19.45Q93.19 23.04 93.38 26.70L93.33 26.64L93.39 26.71Q95.37 26.90 96.97 26.86L97.04 26.93L96.93 26.82Q98.18 26.85 100.58 26.74L100.53 26.69L100.70 26.86Q100.68 27.52 100.68 28.21L100.50 28.03L100.62 29.48L100.59 29.45Q98.23 29.49 93.43 29.57L93.38 29.51L93.34 29.48Q93.39 33.64 92.82 37.64L92.84 37.66L92.85 37.67Q95.43 36.97 98.17 37.08L98.18 37.09L98.18 37.10Q100.97 37.26 103.56 38.09L103.44 37.98L103.48 38.01Q103.61 38.87 103.88 39.63L103.81 39.57L104.27 41.09L104.33 41.16Q101.11 39.83 97.68 39.83L97.72 39.88L97.59 39.74Q92.82 39.84 88.56 42.09L88.56 42.09L88.53 42.07Q90.94 35.33 90.67 28.22L90.66 28.20L90.52 28.07Q90.30 20.95 87.63 14.29ZM88.00 42.75L88.00 42.76L88.01 42.76Q89.19 41.97 89.96 41.62L89.98 41.64L89.95 41.62Q89.86 42.48 89.29 44.00L89.22 43.93L89.37 44.08Q93.88 42.09 98.95 42.36L98.93 42.33L98.88 42.29Q104.04 42.58 108.04 45.28L108.09 45.33L108.03 45.27Q106.93 42.80 106.24 40.85L106.13 40.74L106.22 40.83Q105.25 40.24 104.26 39.90L104.11 39.75L104.13 39.77Q103.92 38.57 103.76 37.77L103.63 37.64L103.73 37.73Q100.59 36.69 97.43 36.69L97.46 36.72L97.44 36.70Q96.32 36.72 95.18 36.84L95.24 36.89L95.13 36.79Q95.30 35.59 95.34 34.37L95.37 34.40L95.29 31.73L95.35 31.79Q97.25 31.79 99.04 31.83L99.03 31.82L99.06 31.85Q100.80 31.80 102.59 31.95L102.59 31.95L102.58 31.94Q102.46 30.94 102.46 29.99L102.59 30.12L102.62 28.25L101.65 28.16L101.83 28.33Q101.34 28.34 100.89 28.34L100.84 28.29L100.85 28.31Q100.88 27.65 101.03 26.35L100.92 26.25L101.05 26.38Q99.34 26.50 98.16 26.53L98.16 26.53L98.28 26.65Q97.29 26.61 95.47 26.54L95.37 26.44L95.53 26.60Q95.37 25.11 95.18 22.29L95.09 22.20L95.21 22.33Q96.20 22.40 97.19 22.40L97.30 22.51L97.24 22.45Q101.86 22.35 105.55 20.45L105.52 20.41L105.70 20.60Q106.21 18.17 107.09 15.96L107.08 15.96L107.02 15.90Q105.81 16.86 104.98 17.20L104.82 17.05L104.80 17.03Q105.11 16.27 105.56 14.71L105.62 14.77L105.58 14.72Q101.04 16.96 96.16 16.65L96.19 16.68L96.23 16.72Q90.80 16.27 86.95 13.42L87.05 13.52L86.96 13.42Q89.81 20.35 90.11 27.96L90.18 28.03L90.10 27.95Q90.58 36.04 88.07 42.82Z"/><path fill="#333" d="M21.70 29.13L21.59 29.02L21.74 29.18Q19.91 29.06 18.68 30.49L18.68 30.49L18.59 30.40Q17.47 31.94 17.28 33.85L17.09 33.66L17.12 33.69Q16.87 35.73 17.96 36.70L18.11 36.85L18.14 36.88Q19.20 37.83 21.29 37.71L21.28 37.70L21.19 37.61Q23.25 37.42 24.35 36.73L24.41 36.79L24.46 36.85Q25.49 35.63 25.49 34.07L25.49 34.07L25.60 34.18Q25.64 33.84 25.57 33.46L25.58 33.47L25.48 33.37Q25.50 31.64 24.40 30.29L24.53 30.43L24.38 30.27Q23.29 28.93 21.62 29.05ZM21.17 40.14L21.25 40.22L21.33 40.30Q16.91 40.25 15.50 39.49L15.55 39.54L15.57 39.56Q14.51 38.77 14.32 37.06L14.17 36.91L14.28 37.02Q14.14 36.23 14.17 35.50L14.29 35.62L14.33 35.66Q14.41 34.64 14.41 34.18L14.40 34.17L14.35 34.12Q14.74 31.20 14.90 30.52L14.97 30.59L14.90 30.52Q15.36 28.58 16.19 27.17L16.36 27.34L16.37 27.34Q18.99 22.92 24.93 16.56L24.88 16.52L24.89 16.52Q27.64 16.30 29.85 15.50L29.66 15.32L29.71 15.36Q22.99 22.96 19.80 27.19L19.63 27.03L19.62 27.02Q20.64 26.55 21.93 26.55L22.01 26.62L22.03 26.65Q25.27 26.57 26.79 28.51L26.89 28.62L26.88 28.61Q28.15 30.18 28.49 33.72L28.59 33.82L28.54 33.77Q28.51 34.38 28.51 34.99L28.51 34.99L28.64 35.13Q28.58 38.19 26.38 39.25L26.40 39.28L26.39 39.27Q25.23 39.94 21.35 40.32ZM23.64 42.72L23.63 42.71L23.60 42.68Q24.88 42.63 26.86 42.70L26.75 42.60L26.79 42.64Q28.51 42.80 30.07 42.08L30.04 42.04L30.11 42.12Q31.06 41.16 31.06 39.37L31.09 39.40L31.05 39.36Q31.10 38.92 30.93 37.93L30.91 37.91L30.89 37.88Q30.75 36.92 30.75 36.47L30.76 36.48L30.68 36.40Q29.90 31.78 28.30 29.88L28.20 29.77L28.20 29.77Q28.31 29.84 28.15 29.61L27.99 29.45L27.83 29.36L27.73 29.30L27.63 29.20Q27.43 28.85 26.82 27.89L26.70 27.78L26.68 27.76Q25.84 26.88 23.86 26.42L23.87 26.43L23.79 26.35Q25.15 24.89 28.12 21.20L28.05 21.13L32.26 15.82L32.25 15.82Q30.73 16.73 28.33 17.49L28.22 17.38L28.28 17.44Q29.26 16.52 31.05 14.54L31.00 14.49L31.00 14.49Q28.56 15.51 24.67 16.08L24.65 16.06L24.71 16.12Q19.06 22.08 16.09 27.03L16.06 27.00L16.10 27.04Q14.49 29.46 13.92 35.71L13.97 35.76L13.95 35.74Q13.88 36.31 13.95 37.26L13.96 37.27L13.90 37.21Q13.94 38.92 15.04 39.84L15.20 39.99L15.16 39.96Q15.57 40.13 15.53 40.17L15.44 40.08L15.54 40.18Q15.81 40.98 16.60 41.40L16.58 41.37L16.74 41.54Q18.11 42.15 20.06 42.34L20.07 42.35L20.10 42.38Q19.98 42.27 23.49 42.57ZM23.36 31.44L23.38 31.46L23.38 31.46Q23.90 31.29 24.85 31.79L24.84 31.78L24.92 31.86Q25.12 32.67 25.12 33.31L25.14 33.33L25.16 33.35Q25.29 35.16 24.34 36.15L24.45 36.26L24.51 36.32Q23.45 37.05 21.35 37.35L21.34 37.33L21.23 37.23Q19.89 37.34 19.36 37.07L19.29 37.00L19.31 37.02Q19.18 36.63 19.18 36.32L19.06 36.20L19.16 36.30Q18.86 32.96 21.79 31.66L21.72 31.59L21.84 31.71Q22.63 31.40 23.39 31.48Z"/><path fill="#111" d="M53.08 28.73L53.12 28.77L47.18 28.80L47.20 28.83Q44.21 28.80 41.28 28.73L41.23 28.68L41.21 28.66Q41.43 35.46 39.37 40.98L39.37 40.98L39.32 40.93Q37.59 41.53 35.84 42.21L35.68 42.05L35.82 42.19Q38.48 36.36 38.48 29.70L38.56 29.78L38.64 29.85Q38.53 21.26 34.42 14.22L34.48 14.28L34.40 14.19Q35.98 15.05 38.46 15.85L38.51 15.91L38.51 15.91Q40.62 20.95 41.15 25.82L41.16 25.83L41.04 25.71Q44.37 26.26 47.23 26.22L47.22 26.21L47.20 26.20Q49.85 26.19 53.17 25.92L53.05 25.80L53.18 25.93Q53.60 21.48 55.35 16.38L55.38 16.41L55.37 16.40Q57.33 16.00 59.58 15.16L59.48 15.07L59.61 15.19Q55.98 21.92 55.98 29.88L55.87 29.77L55.98 29.88Q55.90 36.00 58.26 41.33L58.32 41.39L58.33 41.40Q56.73 40.79 54.67 40.49L54.53 40.34L54.61 40.42Q52.87 35.34 52.99 28.64ZM54.43 40.85L54.41 40.83L54.35 40.77Q55.42 40.97 56.52 41.23L56.37 41.08L56.55 41.26Q56.89 41.98 57.54 43.46L57.39 43.32L57.38 43.31Q60.80 44.33 62.59 45.24L62.51 45.17L62.66 45.31Q58.18 39.12 57.88 30.86L57.92 30.90L57.90 30.88Q57.49 22.74 61.14 15.93L61.28 16.07L60.09 16.40L60.06 16.37Q59.60 16.63 58.99 16.78L59.04 16.83L58.99 16.78Q59.47 16.05 60.31 14.49L60.34 14.52L60.26 14.43Q57.71 15.58 55.08 16.07L54.90 15.89L54.89 15.88Q53.37 20.87 52.91 25.55L52.93 25.57L52.84 25.48Q50.30 25.65 47.87 25.65L47.95 25.73L48.03 25.81Q45.58 25.76 43.07 25.60L42.97 25.51L43.08 25.62Q42.86 22.35 41.75 18.28L41.70 18.22L41.65 18.17Q40.92 18.02 39.48 17.64L39.66 17.82L39.55 17.72Q39.11 16.43 38.65 15.41L38.82 15.58L38.64 15.40Q35.94 14.67 33.66 13.42L33.80 13.56L33.74 13.50Q38.25 20.86 38.25 29.65L38.25 29.65L38.36 29.77Q38.24 36.62 35.12 42.74L35.25 42.87L35.19 42.82Q35.96 42.59 37.29 42.02L37.15 41.88L37.18 41.92Q36.77 42.68 35.97 44.20L36.08 44.31L36.08 44.31Q38.87 43.29 41.11 42.88L41.14 42.91L41.11 42.88Q43.03 37.37 43.22 31.21L43.25 31.23L43.25 31.23Q44.69 31.00 47.89 30.96L48.08 31.15L47.90 30.97Q50.87 31.05 52.77 31.12L52.68 31.03L52.69 31.04Q52.95 36.78 54.28 40.70Z"/><path fill="#333" d="M71.15 29.25L71.13 29.23L71.07 29.17Q69.31 29.28 68.09 30.61L67.96 30.47L67.91 30.42Q66.78 31.85 66.63 33.75L66.60 33.72L66.54 33.67Q66.50 35.94 67.72 36.95L67.73 36.96L67.62 36.86Q68.80 37.83 70.93 37.75L70.99 37.81L70.91 37.73Q73.29 37.63 74.24 36.68L74.26 36.70L74.37 36.81Q75.35 35.32 75.24 33.49L75.24 33.49L75.16 33.41Q75.00 31.50 73.91 30.30L73.95 30.34L73.96 30.34Q73.01 29.29 71.19 29.29ZM71.12 19.82L70.98 19.68L71.02 19.72Q69.72 19.71 68.39 20.21L68.34 20.15L68.21 20.03Q66.99 20.90 67.22 22.77L67.14 22.69L67.26 22.81Q67.68 26.46 71.03 26.46L71.16 26.59L71.03 26.46Q72.66 26.72 73.65 25.58L73.74 25.67L73.59 25.52Q74.58 24.38 74.61 22.82L74.69 22.89L74.72 22.92Q74.77 21.14 74.04 20.53L73.97 20.45L74.08 20.57Q72.26 19.59 70.97 19.67ZM70.76 40.28L70.73 40.25L67.83 40.40L67.78 40.35Q66.28 40.37 64.95 39.49L64.93 39.48L64.86 39.41Q63.56 38.33 63.71 35.47L63.64 35.41L63.59 35.35Q64.06 28.51 67.67 27.52L67.77 27.62L67.64 27.49Q65.37 26.60 64.04 21.23L64.10 21.29L64.11 21.29Q63.70 19.82 63.77 19.02L63.80 19.04L63.87 19.11Q64.17 16.98 67.86 16.94L67.83 16.91L67.92 17.00Q72.18 16.95 73.62 17.14L73.61 17.13L73.56 17.08Q77.32 17.52 77.77 19.54L77.90 19.67L77.82 19.59Q78.03 20.29 78.03 20.67L77.95 20.59L78.03 20.68Q78.03 21.36 77.84 21.97L77.85 21.98L77.79 21.92Q77.17 26.13 74.24 27.65L74.19 27.60L74.23 27.64Q77.68 28.39 78.17 33.68L78.26 33.77L78.27 33.78Q78.18 33.85 78.22 35.14L78.19 35.11L78.27 35.19Q78.39 37.97 76.79 39.04L76.70 38.95L76.67 38.92Q75.36 39.86 70.79 40.31ZM73.06 42.62L73.13 42.69L76.32 42.60L76.39 42.67Q78.22 42.87 79.75 42.15L79.55 41.96L79.74 42.14Q80.81 41.34 80.88 39.48L80.88 39.48L80.88 39.48Q80.81 38.26 80.43 36.32L80.47 36.36L80.46 36.35Q79.53 31.69 77.43 29.82L77.56 29.95L77.27 29.47L77.19 29.31L76.95 28.96L76.89 28.90Q78.65 27.65 79.57 23.50L79.44 23.38L79.63 23.57Q79.55 23.10 79.62 22.27L79.68 22.33L79.63 22.28Q79.66 21.54 79.58 20.93L79.67 21.01L79.67 21.02Q79.41 19.46 78.23 18.97L78.34 19.08L78.23 18.93L78.21 18.99L78.09 18.87Q77.79 18.11 76.61 17.31L76.74 17.44L76.71 17.38L76.75 17.41Q74.72 16.67 70.64 16.48L70.64 16.48L70.73 16.58Q69.03 16.32 67.66 16.44L67.68 16.46L67.72 16.49Q66.87 16.48 65.57 16.63L65.69 16.75L65.72 16.77Q63.70 17.08 63.47 18.71L63.41 18.65L63.57 18.81Q63.45 19.23 63.49 20.03L63.54 20.08L63.40 19.94Q63.65 20.61 64.22 22.97L64.09 22.83L64.06 22.81Q64.94 26.13 66.70 27.46L66.61 27.38L66.81 27.57L66.80 27.57Q64.01 28.84 63.47 34.02L63.54 34.08L63.54 34.09Q63.27 36.21 63.27 37.13L63.23 37.09L63.26 37.12Q63.36 38.93 64.54 39.85L64.48 39.79L64.48 39.79Q64.73 40.00 65.00 40.19L64.98 40.17L64.96 40.15Q66.03 42.48 73.15 42.71ZM72.66 31.48L72.75 31.57L72.75 31.58Q73.56 31.40 74.44 31.85L74.50 31.91L74.48 31.89Q74.90 32.92 74.86 33.45L74.86 33.46L74.90 33.49Q74.89 33.75 74.89 34.06L74.96 34.12L74.86 34.02Q74.92 36.45 72.64 37.29L72.63 37.27L72.63 37.28Q71.77 37.53 70.98 37.41L71.11 37.55L71.05 37.48Q69.85 37.50 68.71 37.05L68.73 37.07L68.77 37.11Q68.48 36.44 68.55 35.45L68.50 35.40L68.53 35.43Q68.67 33.81 69.87 32.60L69.85 32.57L69.98 32.71Q71.07 31.38 72.67 31.49ZM73.03 22.15L72.94 22.05L72.97 22.08Q73.76 21.97 74.30 22.12L74.23 22.05L74.29 22.91L74.37 22.99Q74.36 24.39 73.44 25.40L73.29 25.24L73.36 25.31Q72.44 26.31 71.07 26.12L70.99 26.04L71.00 26.06Q70.08 26.12 69.66 25.89L69.59 25.82L69.67 25.90Q69.58 25.59 69.47 24.90L69.53 24.97L69.48 24.91Q69.26 23.55 70.47 22.71L70.47 22.71L70.41 22.65Q71.52 22.01 72.93 22.05Z"/></svg>